HIERARCHY
ROOT root
{
	OFFSET	0	13.1	24.9
	CHANNELS 6  Xposition Yposition Zposition Xrotation Yrotation Zrotation
	JOINT spine_1
	{
		OFFSET	0	9.99999	0
		CHANNELS 3  Xrotation Yrotation Zrotation
		JOINT spine_2
		{
			OFFSET	0	112	-10
			CHANNELS 3  Xrotation Yrotation Zrotation
			JOINT spine_3
			{
				OFFSET	0	206.5	19.3
				CHANNELS 3  Xrotation Yrotation Zrotation
				JOINT spine_4
				{
					OFFSET	0	110.4	14.6
					CHANNELS 3  Xrotation Yrotation Zrotation
					JOINT neck_1
					{
						OFFSET	0	71.8	-50.3
						CHANNELS 3  Xrotation Yrotation Zrotation
						JOINT neck_2
						{
							OFFSET	0	86.2	-25.8
							CHANNELS 3  Xrotation Yrotation Zrotation
							JOINT head_ee
							{
								OFFSET	0	179.8	-8.7
								CHANNELS 3  Xrotation Yrotation Zrotation
								End Site
								{
									OFFSET	1	0	0
								}
							}
						}
					}
					JOINT left_clavicle
					{
						OFFSET	-43.2	22.4	-70.8
						CHANNELS 3  Xrotation Yrotation Zrotation
						JOINT left_shoulder
						{
							OFFSET	-93.9	-5.79999	48.7
							CHANNELS 3  Xrotation Yrotation Zrotation
							JOINT left_elbow
							{
								OFFSET	-291.4	-30.8	15.2
								CHANNELS 3  Xrotation Yrotation Zrotation
								JOINT left_lowarm_twist
								{
									OFFSET	-110.7	-3.89999	13.6
									CHANNELS 3  Xrotation Yrotation Zrotation
									JOINT left_hand
									{
										OFFSET	-110.7	-3.89999	13.6
										CHANNELS 3  Xrotation Yrotation Zrotation
										JOINT left_ee
										{
											OFFSET	-80.8	-5.10001	12.1
											CHANNELS 3  Xrotation Yrotation Zrotation
											End Site
											{
												OFFSET	1	0	0
											}
										}
									}
								}
							}
						}
					}
					JOINT right_clavicle
					{
						OFFSET	43.2	22.4	-70.8
						CHANNELS 3  Xrotation Yrotation Zrotation
						JOINT right_shoulder
						{
							OFFSET	93.9	-5.79999	48.7
							CHANNELS 3  Xrotation Yrotation Zrotation
							JOINT right_elbow
							{
								OFFSET	291.4	-30.8	15.2
								CHANNELS 3  Xrotation Yrotation Zrotation
								JOINT right_lowarm_twist
								{
									OFFSET	110.7	-3.89999	13.6
									CHANNELS 3  Xrotation Yrotation Zrotation
									JOINT right_hand
									{
										OFFSET	110.7	-3.89999	13.6
										CHANNELS 3  Xrotation Yrotation Zrotation
										JOINT right_ee
										{
											OFFSET	80.8	-5.10001	12.1
											CHANNELS 3  Xrotation Yrotation Zrotation
											End Site
											{
												OFFSET	1	0	0
											}
										}
									}
								}
							}
						}
					}
				}
			}
		}
	}
	JOINT left_hip
	{
		OFFSET	-82.8	-127.5	0.300001
		CHANNELS 3  Xrotation Yrotation Zrotation
		JOINT left_knee
		{
			OFFSET	-28.2	-396.7	2.2
			CHANNELS 3  Xrotation Yrotation Zrotation
			JOINT left_ankle
			{
				OFFSET	-11.7	-411.3	35.4
				CHANNELS 3  Xrotation Yrotation Zrotation
				JOINT left_toes
				{
					OFFSET	0	-60	-88.6
					CHANNELS 3  Xrotation Yrotation Zrotation
					JOINT left_foot_ee
					{
						OFFSET	-22.5	-16.5	-42.2
						CHANNELS 3  Xrotation Yrotation Zrotation
						End Site
						{
							OFFSET	1	0	0
						}
					}
				}
			}
		}
	}
	JOINT right_hip
	{
		OFFSET	82.8	-127.5	0.300001
		CHANNELS 3  Xrotation Yrotation Zrotation
		JOINT right_knee
		{
			OFFSET	28.2	-396.7	2.2
			CHANNELS 3  Xrotation Yrotation Zrotation
			JOINT right_ankle
			{
				OFFSET	11.7	-411.3	35.4
				CHANNELS 3  Xrotation Yrotation Zrotation
				JOINT right_toes
				{
					OFFSET	0	-60	-88.6
					CHANNELS 3  Xrotation Yrotation Zrotation
					JOINT right_foot_ee
					{
						OFFSET	22.5	-16.5	-42.2
						CHANNELS 3  Xrotation Yrotation Zrotation
						End Site
						{
							OFFSET	1	0	0
						}
					}
				}
			}
		}
	}
}
MOTION
Frames: 9
Frame Time: 0.02
1795.01 755.834 -1465.15 -150.275 68.8766 153.171 4.20203 0.195376 1.86223 4.20396 0.0765032 1.87088 4.20523 -0.182309 1.86355 4.2004 0.114239 1.86896 -9.05291 -3.30239 -6.79389 -8.92508 -1.48976 -7.44088 -0.0 0.0 -0.0 5.01059 -20.269 8.43525 -11.4962 -42.1808 51.9083 0.834359 -22.456 0.165634 -13.2795 -0.652357 1.56381 0.203409 5.64441 3.69221 -0.0 0.0 -0.0 6.96221 -10.7744 -13.2801 -37.7965 13.7705 -59.9463 1.7646 41.1539 -0.662504 36.8024 0.193478 4.61746 -1.18064 -14.0408 1.61105 0.0 0.0 0.0 20.4011 -6.90786 2.93925 3.65694 -0.167775 -0.535928 -0.602761 -27.1663 0.108647 -15.7557 0.0 0.0 -0.0 0.0 -0.0 18.2133 -10.7976 0.832556 -48.751 1.11514 -7.17671 12.0445 -4.7854 1.70183 -7.16478 0.0 0.0 0.0 0.0 0.0 
1783.41 754.536 -1465.55 -148.78 69.4174 151.926 4.05888 -0.043872 1.77948 4.06062 -0.156998 1.77308 4.05471 -0.404742 1.7334 4.05054 -0.125949 1.77556 -8.58608 -3.13903 -6.2448 -8.4784 -1.50717 -6.865 -0.0 0.0 -0.0 4.93291 -20.1681 8.27627 -9.79702 -42.3849 50.963 0.897851 -23.9777 0.190665 -13.1435 -0.643859 1.54861 0.127563 5.61729 3.18349 -0.0 0.0 -0.0 6.78216 -10.872 -12.9579 -39.7394 13.4621 -60.3061 1.68432 39.837 -0.610368 36.0874 0.161552 4.5318 -1.08132 -13.3354 1.30403 0.0 0.0 0.0 18.4825 -7.07999 2.50852 2.76148 -0.123529 -0.405683 0.719962 -27.0272 -0.12905 -15.4255 0.0 0.0 -0.0 0.0 -0.0 20.4325 -14.0332 0.856977 -46.0868 0.898692 -6.82844 11.3386 -2.17307 1.61182 -7.13361 0.0 0.0 0.0 0.0 0.0 
1768.72 755.793 -1464.82 -149.597 70.1485 152.939 4.08399 -0.318357 1.65967 4.08542 -0.423307 1.63606 4.07245 -0.648737 1.56047 4.06927 -0.394183 1.64332 -7.73035 -2.97994 -5.4932 -7.64765 -1.64228 -6.0893 -0.0 0.0 -0.0 4.82136 -19.6544 8.08073 -8.0813 -42.4339 50.4208 0.976835 -25.8216 0.223924 -12.9523 -0.63198 1.52722 0.0313093 5.58283 2.53811 -0.0 0.0 -0.0 6.79052 -10.763 -12.9771 -41.3248 13.3231 -60.495 1.58909 38.2066 -0.550407 35.066 0.117805 4.40877 -0.932121 -12.2171 0.857701 0.0 0.0 0.0 16.5051 -7.35844 1.33284 1.67022 -0.0723729 -0.246068 2.61468 -26.8356 -0.464794 -14.9182 0.0 0.0 -0.0 0.0 -0.0 22.2751 -18.6911 2.18137 -42.946 0.664752 -6.4057 10.3465 1.48094 1.48862 -7.08835 0.0 0.0 0.0 0.0 0.0 
1752.32 757.685 -1465.76 -151.403 71.141 155.27 4.10412 -0.548673 1.45191 4.10507 -0.639941 1.41406 4.08868 -0.83172 1.31049 4.08681 -0.614338 1.42537 -6.13184 -2.92894 -4.54834 -6.07614 -2.06965 -5.13674 -0.0 0.0 -0.0 4.57525 -18.114 7.68436 -7.60364 -41.9964 49.8759 1.04955 -27.47 0.256538 -12.6922 -0.615937 1.49807 -0.0985486 5.53959 1.66901 -0.0 0.0 -0.0 6.8403 -10.6099 -13.0713 -43.0666 13.1989 -60.6908 1.46825 36.0272 -0.477473 33.6988 0.0627006 4.24292 -0.717422 -10.7009 0.15307 0.0 0.0 0.0 15.1165 -7.77071 0.120539 -0.0770832 0.00316616 0.0114054 4.86317 -26.6244 -0.855675 -14.1937 0.0 0.0 -0.0 0.0 -0.0 22.8924 -25.0218 3.48213 -40.2143 0.480458 -6.02825 8.9374 6.67555 1.31764 -6.97593 0.0 0.0 0.0 0.0 0.0 
1735.12 754.252 -1468.22 -146.871 72.558 151.407 4.1593 -0.668288 1.27093 4.15989 -0.7478 1.22584 4.14351 -0.911077 1.10988 4.14252 -0.724372 1.23982 -4.13086 -2.60359 -3.30872 -4.10176 -2.23368 -3.8184 -0.0 0.0 -0.0 4.49606 -16.3424 7.66313 -6.38797 -41.5065 49.0811 1.14605 -29.5835 0.302633 -12.3171 -0.593025 1.45588 -0.400331 5.46974 -0.337585 -0.0 0.0 -0.0 6.83612 -10.3908 -13.0727 -45.4368 13.1582 -61.2622 1.39418 34.6284 -0.434638 32.0241 0.000628911 4.03808 -0.22642 -8.54572 -2.08726 0.0 0.0 0.0 13.593 -8.32027 -1.57543 -2.47412 0.0939332 0.368047 8.08801 -26.3603 -1.40136 -12.5673 0.0 0.0 -0.0 0.0 -0.0 24.0476 -34.0753 5.64949 -36.4263 0.255201 -5.49149 6.34168 14.0562 0.984938 -6.77832 0.0 0.0 0.0 0.0 0.0 
1721.17 750.665 -1468.1 -141.915 74.303 146.373 4.12193 -0.591767 1.03458 4.12228 -0.656398 0.994833 4.11065 -0.788898 0.89342 4.11011 -0.637906 1.00679 -1.55537 -2.02974 -1.5884 -1.54736 -2.38578 -1.93364 -0.0 0.0 -0.0 4.49208 -14.0053 7.84006 -4.47782 -41.8354 48.5787 1.28587 -32.4949 0.37475 -11.761 -0.559574 1.39308 -0.491564 5.4266 -0.953801 -0.0 0.0 -0.0 6.82866 -9.85857 -13.0801 -47.3399 12.8006 -61.7086 1.29104 32.5991 -0.37753 30.1695 -0.0610854 3.80926 0.258568 -5.56922 -4.02368 0.0 0.0 0.0 13.5282 -9.0809 -3.14521 -4.52636 0.15972 0.676118 9.12231 -26.5618 -1.57771 -10.7537 0.0 0.0 -0.0 0.0 -0.0 25.9385 -42.8647 7.85628 -30.9867 -0.00500984 -4.69783 4.40143 21.6588 0.734251 -6.42962 0.0 0.0 0.0 0.0 0.0 
1716.36 752.633 -1467.12 -139.315 74.5424 143.654 4.04644 -0.375608 0.802573 4.0467 -0.425915 0.777047 4.04076 -0.531091 0.709332 4.0403 -0.412404 0.784301 0.485624 -2.12426 -0.178277 0.4952 -3.62504 -0.405553 -0.0 0.0 -0.0 4.69696 -11.8949 8.42718 -2.86516 -42.5352 47.8922 1.50471 -36.6981 0.499091 -11.8344 -0.563958 1.40139 -0.555575 4.33082 -1.84442 -0.0 0.0 -0.0 6.85784 -9.23668 -13.1552 -47.3812 12.4801 -61.889 1.14757 29.6161 -0.303383 29.7376 -0.0743903 3.7557 0.817418 -4.11166 -7.12848 0.0 0.0 0.0 13.0791 -8.74334 -3.43937 -4.65645 0.163518 0.695721 10.3135 -26.8354 -1.78058 -9.11026 0.0 0.0 -0.0 0.0 -0.0 29.5133 -49.8173 9.07047 -21.8996 -0.268233 -3.32954 -0.138965 23.7425 -0.024031 -8.12231 0.0 0.0 0.0 0.0 0.0 
1707.84 756.894 -1463.96 -136.747 75.398 141.152 3.57951 -0.0250976 0.455891 3.57962 -0.054056 0.453371 3.57914 -0.120889 0.440287 3.57887 -0.0498375 0.453854 0.60152 -3.07724 0.157794 0.626296 -5.59018 -0.13229 -0.0 0.0 -0.0 5.02256 -8.96049 9.29595 -1.34632 -43.2455 47.5163 1.89543 -43.1918 0.750354 -12.7335 -0.618471 1.50269 -0.596156 2.5729 -2.87091 -0.0 0.0 -0.0 7.12125 -9.06434 -13.6377 -47.3785 12.0975 -62.3462 0.974842 25.7758 -0.223057 29.3147 -0.087027 3.70315 1.59976 -3.17045 -12.0037 0.0 0.0 0.0 14.1273 -8.442 -2.65721 -4.6218 0.162511 0.6905 11.7016 -27.9068 -2.03439 -7.91982 0.0 0.0 -0.0 0.0 -0.0 28.1384 -53.2769 5.03264 -10.1352 -0.282795 -1.5277 -6.53337 26.5448 -1.18541 -10.4493 0.0 0.0 0.0 0.0 0.0 
1705.2 758.857 -1462.83 -134.5 75.2833 138.973 3.38509 0.255951 0.209832 3.38509 0.24208 0.225694 3.38605 0.204946 0.259879 3.38604 0.243417 0.22425 1.56118 -3.5355 0.903441 1.61061 -6.98521 0.683114 -0.0 0.0 -0.0 5.5323 -8.78087 10.3652 -0.400932 -44.1009 47.0013 2.18802 -47.2989 0.958267 -12.7003 -0.616432 1.49897 -0.774049 2.23132 -4.20105 -0.0 0.0 -0.0 7.20087 -8.69494 -13.7974 -47.6435 11.7639 -62.8667 0.902935 24.0981 -0.192736 29.2109 -0.0900692 3.69024 1.97277 -3.50401 -14.6719 0.0 0.0 0.0 12.8121 -8.04392 -2.67372 -4.65773 0.163555 0.695915 14.5952 -29.3712 -2.54985 -6.10882 0.0 0.0 -0.0 0.0 -0.0 29.1017 -53.5268 4.06181 -4.72963 -0.165634 -0.706754 -8.80798 28.0208 -1.63512 -10.4558 0.0 0.0 0.0 0.0 0.0 
